<?xml version="1.0" encoding="UTF-8"?>
<!DOCTYPE svg PUBLIC "-//W3C//DTD SVG 1.1//EN" "http://www.w3.org/Graphics/SVG/1.1/DTD/svg11.dtd">
<!-- Creator: CorelDRAW X6 -->
<svg xmlns="http://www.w3.org/2000/svg" xml:space="preserve" width="11.6929in" height="8.26772in" version="1.1" style="shape-rendering:geometricPrecision; text-rendering:geometricPrecision; image-rendering:optimizeQuality; fill-rule:evenodd; clip-rule:evenodd"
viewBox="0 0 11693 8268"
 xmlns:xlink="http://www.w3.org/1999/xlink">
 <defs>
  <style type="text/css">
   <![CDATA[
    .str0 {stroke:#FEFEFE;stroke-width:3}
    .fil1 {fill:none}
    .fil0 {fill:#FEFEFE}
   ]]>
  </style>
 </defs>
 <g id="Layer_x0020_1">
  <metadata id="CorelCorpID_0Corel-Layer"/>
  <g id="_320483808">
   <path class="fil0" d="M4789 2359l2502 0c288,0 524,236 524,524l0 1873 -1089 1141c-13,20 -25,45 -37,73l0 1c0,0 0,0 0,0 -1,3 -3,6 -4,10l0 0 0 0 0 0 0 1c-1,3 -3,7 -4,10l0 0 0 0 0 1c-1,3 -3,7 -4,10l0 1 0 0 0 0 0 1 0 0 0 0 0 0 0 0 0 0 0 0 0 0 0 0 0 0c-75,208 -131,569 -194,846l0 0 -1693 0c-288,0 -524,-236 -524,-524l0 -3444c0,-288 236,-524 524,-524zm3027 3889l0 80c0,288 -236,524 -524,524l-792 0c311,-67 868,-146 978,-261l339 -343zm-2373 -80l-476 -447 239 -255 219 193 422 -478 262 231 -667 756zm0 -1049l-476 -447 239 -255 219 193 422 -478 262 231 -667 756zm0 -1058l-476 -447 239 -255 219 193 422 -478 262 231 -667 756zm745 431l927 0 0 350 -927 0 0 -350zm0 -1049l927 0 0 350 -927 0 0 -350z"/>
   <polyline class="fil1 str0" points="7811,4757 7971,4585 8720,5332 7811,6256 "/>
   <polygon class="fil0" points="8228,5332 7277,6307 7030,6060 7979,5083 "/>
  </g>
 </g>
</svg>
